# This file uses centimeters as units for non-parametric coordinates.

mtllib dice.mtl
g default
v 0.0 0.0 1.0
v 1.0 0.0 1.0
v 0.0 1.0 1.0
v 1.0 1.0 1.0
v 0.0 1.0 0.0
v 1.0 1.0 0.0
v 0.0 0.0 0.0
v 1.0 0.0 0.0
vt 0.097763 -0.004697
vt 0.349817 -0.004697
vt 0.349817 0.247357
vt 0.097763 0.247357
vt 0.660039 -0.000011
vt 0.912094 -0.000011
vt 0.912094 0.252044
vt 0.660039 0.252044
vt 0.367385 -0.018640
vt 0.619439 -0.018640
vt 0.619439 0.233415
vt 0.367385 0.233415
vt 0.370800 0.490699
vt 0.622854 0.490699
vt 0.622854 0.742753
vt 0.370800 0.742753
vt 0.371813 0.745450
vt 0.623867 0.745450
vt 0.623867 0.997504
vt 0.371813 0.997504
vt 0.380386 0.241015
vt 0.627290 0.241015
vt 0.627290 0.487919
vt 0.380386 0.487919
vn 0.000000 0.000000 1.000000
vn 0.000000 0.000000 1.000000
vn 0.000000 0.000000 1.000000
vn 0.000000 0.000000 1.000000
vn 0.000000 1.000000 0.000000
vn 0.000000 1.000000 0.000000
vn 0.000000 1.000000 0.000000
vn 0.000000 1.000000 0.000000
vn 0.000000 0.000000 -1.000000
vn 0.000000 0.000000 -1.000000
vn 0.000000 0.000000 -1.000000
vn 0.000000 0.000000 -1.000000
vn 0.000000 -1.000000 0.000000
vn 0.000000 -1.000000 0.000000
vn 0.000000 -1.000000 0.000000
vn 0.000000 -1.000000 0.000000
vn 1.000000 0.000000 0.000000
vn 1.000000 0.000000 0.000000
vn 1.000000 0.000000 0.000000
vn 1.000000 0.000000 0.000000
vn -1.000000 0.000000 0.000000
vn -1.000000 0.000000 0.000000
vn -1.000000 0.000000 0.000000
vn -1.000000 0.000000 0.000000
s 1
g pCube1
usemtl lambert2SG
f 1/1/1 2/2/2 3/4/3
f 3/4/3 2/2/2 4/3/4
s 2
f 3/5/5 4/6/6 5/8/7
f 5/8/7 4/6/6 6/7/8
s 3
f 5/9/9 6/10/10 7/12/11
f 7/12/11 6/10/10 8/11/12
s 4
f 7/13/13 8/14/14 1/16/15
f 1/16/15 8/14/14 2/15/16
s 5
f 2/17/17 8/18/18 4/20/19
f 4/20/19 8/18/18 6/19/20
s 6
f 7/21/21 1/22/22 5/24/23
f 5/24/23 1/22/22 3/23/24
